<svg height="512pt" viewBox="-16 0 512 512" width="512pt" xmlns="http://www.w3.org/2000/svg"><path d="m480 120c0-19.3125-13.769531-35.472656-32-39.191406v-48.808594c0-4.425781-3.574219-8-8-8h-120v-16c0-4.425781-3.574219-8-8-8h-144c-4.425781 0-8 3.574219-8 8v16h-56c-4.425781 0-8 3.574219-8 8v80h-56c-4.425781 0-8 3.574219-8 8v72.808594c-18.230469 3.71875-32 19.878906-32 39.191406s13.769531 35.472656 32 39.191406v72.808594c0 4.425781 3.574219 8 8 8h120v16c0 4.425781 3.574219 8 8 8h64v24.640625c-27.089844 3.902344-48 27.207031-48 55.359375 0 30.871094 25.128906 56 56 56 28.152344 0 51.457031-20.910156 55.359375-48h88.640625c4.425781 0 8-3.574219 8-8v-216h48c4.425781 0 8-3.574219 8-8v-72.808594c18.230469-3.71875 32-19.878906 32-39.191406zm-304-104h128v32h-128zm-64 24h48v16c0 4.425781 3.574219 8 8 8h64v24h-64c-4.425781 0-8 3.574219-8 8v16h-48zm128 237.257812-45.257812-45.257812 45.257812-45.257812 45.257812 45.257812zm-64-141.257812v-32h128v32zm-160 96c0-13.230469 10.769531-24 24-24s24 10.769531 24 24-10.769531 24-24 24-24-10.769531-24-24zm144 88v16h-112v-64.808594c18.230469-3.71875 32-19.871094 32-39.191406s-13.769531-35.472656-32-39.191406v-64.808594h112v16c0 4.425781 3.574219 8 8 8h64v20.121094l-51.878906 51.878906h-20.121094v16h20.121094l51.878906 51.878906v20.121094h-64c-4.425781 0-8 3.574219-8 8zm16 8h128v32h-128zm64 168c-22.054688 0-40-17.945312-40-40s17.945312-40 40-40 40 17.945312 40 40-17.945312 40-40 40zm136-48h-80.640625c-3.527344-24.472656-22.886719-43.832031-47.359375-47.359375v-24.640625h64c4.425781 0 8-3.574219 8-8v-48c0-4.425781-3.574219-8-8-8h-64v-20.121094l51.878906-51.878906h76.121094zm-76.121094-224-51.878906-51.878906v-20.121094h64c4.425781 0 8-3.574219 8-8v-48c0-4.425781-3.574219-8-8-8h-64v-24h64c4.425781 0 8-3.574219 8-8v-16h112v40.808594c-18.230469 3.71875-32 19.871094-32 39.191406s13.769531 35.472656 32 39.191406v64.808594zm140.121094-80c-13.230469 0-24-10.769531-24-24s10.769531-24 24-24 24 10.769531 24 24-10.769531 24-24 24zm0 0"/><path d="m96 224h16v16h-16zm0 0"/><path d="m128 224h16v16h-16zm0 0"/></svg>