<?xml version="1.0"?>
<svg xmlns="http://www.w3.org/2000/svg" id="outline" viewBox="0 0 512 512" width="512" height="512"><path d="M42.34277,437.65674A8.00076,8.00076,0,0,0,48,440H152a8.00076,8.00076,0,0,0,5.65723-2.34326L176,419.314V488a8.00008,8.00008,0,0,0,8,8H328a8.00008,8.00008,0,0,0,8-8V419.314l18.34277,18.34278A8.00076,8.00076,0,0,0,360,440H464a8.00076,8.00076,0,0,0,5.65723-2.34326l24-24A8.00035,8.00035,0,0,0,496,408V384a8.00008,8.00008,0,0,0-8-8H456a8.00008,8.00008,0,0,0-8-8H432a7.99943,7.99943,0,0,0-6.65625,3.5625l-11.5625,17.34375-39.77246-26.51514L355.875,330.65625a71.61719,71.61719,0,0,0-42.7334-33.50781l-18.16211-5.18909A47.72441,47.72441,0,0,0,304,264V224a41.24467,41.24467,0,0,0-28.23926-39.17871l-20.99121-6.99707A35.531,35.531,0,0,0,208,211.53223V264a47.72441,47.72441,0,0,0,9.02051,27.95935l-18.16211,5.18909a71.61719,71.61719,0,0,0-42.7334,33.50781l-18.13379,31.73486L98.21875,388.90625,86.65625,371.5625A7.99943,7.99943,0,0,0,80,368H64a8.00008,8.00008,0,0,0-8,8H24a8.00008,8.00008,0,0,0-8,8v24a8.00035,8.00035,0,0,0,2.34277,5.65674ZM424,402.42188,436.28125,384H440v24h16V392h24v12.68652L460.68652,424H424ZM224,211.53223a19.532,19.532,0,0,1,25.709-18.52979L270.70215,200a25.26016,25.26016,0,0,1,16.00049,16H224ZM224,232h64v32a32,32,0,0,1-64,0Zm30.55859,112h2.88282l13.874,69.37061L256,428.68652l-15.31543-15.31591Zm-7.91113-32.92163a47.91478,47.91478,0,0,0,18.70508,0L258.58374,328h-5.16748ZM104,404.28125l44.4375-29.625a8.00472,8.00472,0,0,0,2.50879-2.687l19.07129-33.37451a55.69581,55.69581,0,0,1,33.23633-26.06153l24.00024-6.85693,12.43433,31.08691-15.53321,77.668a8.00161,8.00161,0,0,0,2.1875,7.22559l24,24a8.00063,8.00063,0,0,0,11.31446,0l24-24a8.00161,8.00161,0,0,0,2.1875-7.22559l-15.53321-77.668,12.43433-31.08691,23.99927,6.85693a55.695,55.695,0,0,1,33.2373,26.06153l19.07129,33.37451a8.00472,8.00472,0,0,0,2.50879,2.687L408,404.28125V424H363.31348l-29.65625-29.65674A8.0001,8.0001,0,0,0,320,400v80H192V400a8.0001,8.0001,0,0,0-13.65723-5.65674L148.68652,424H104ZM32,392H56v16H72V384h3.71875L88,402.42188V424H51.31348L32,404.68652Z"/><path d="M24,328H48v24a8.00008,8.00008,0,0,0,8,8h64a8.00008,8.00008,0,0,0,8-8V328h24a8.00008,8.00008,0,0,0,8-8V288a40.04552,40.04552,0,0,0-40-40H56a40.04552,40.04552,0,0,0-40,40v32A8.00008,8.00008,0,0,0,24,328Zm88,16H64V312a24,24,0,0,1,48,0ZM32,288a24.02718,24.02718,0,0,1,24-24h64a24.02718,24.02718,0,0,1,24,24v24H128a40,40,0,0,0-80,0H32Z"/><circle cx="88" cy="320" r="8"/><path d="M416,208a24.02718,24.02718,0,0,0-24,24v96a24.02718,24.02718,0,0,0,24,24h48a24.02718,24.02718,0,0,0,24-24V232a24.02718,24.02718,0,0,0-24-24Zm56,24v96a8.00917,8.00917,0,0,1-8,8H416a8.00917,8.00917,0,0,1-8-8V232a8.00917,8.00917,0,0,1,8-8h4.686l5.65673,5.65674A8.00076,8.00076,0,0,0,432,232h16a8.00076,8.00076,0,0,0,5.65723-2.34326L459.314,224H464A8.00917,8.00917,0,0,1,472,232Z"/><path d="M72,232h96a24.0275,24.0275,0,0,0,24-24V102.62744a23.84254,23.84254,0,0,0-7.0293-16.9707L154.34375,55.02979A23.84385,23.84385,0,0,0,137.37305,48H72A24.0275,24.0275,0,0,0,48,72V208A24.0275,24.0275,0,0,0,72,232ZM152,75.314,164.686,88H152ZM64,72a8.00917,8.00917,0,0,1,8-8h64V96a8.00008,8.00008,0,0,0,8,8h32V208a8.00917,8.00917,0,0,1-8,8H72a8.00917,8.00917,0,0,1-8-8Z"/><rect x="80" y="184" width="80" height="16"/><rect x="112" y="152" width="48" height="16"/><rect x="80" y="152" width="16" height="16"/><rect x="136" y="120" width="24" height="16"/><rect x="80" y="120" width="40" height="16"/><rect x="80" y="88" width="40" height="16"/><path d="M425.238,37.67407,414.91016,19.96924a7.99972,7.99972,0,0,0-12.56739-1.626l-79.082,79.082-30.83886,15.41944a7.95492,7.95492,0,0,0-2.90235,2.47039l-.00293-.00213-.0664.09167-.00977.01355L270.59961,141.479a8.00018,8.00018,0,0,0-.67188,8.26465l10.917,21.834A7.99979,7.99979,0,0,0,288,176h27.05591l29.78882,59.57764a7.99421,7.99421,0,0,0,10.73339,3.57763l16-8A7.99967,7.99967,0,0,0,376,224V184a7.99583,7.99583,0,0,0-.84473-3.57764l-11.689-23.378,102.73193-29.352a8,8,0,0,0,4.71192-11.72314l-14.12354-24.212,1.16748-.77826A31.29373,31.29373,0,0,0,425.238,37.67407ZM292.94434,160l-6.53809-13.07568,8.34229-11.53888L307.05591,160Zm13.78906-36.42236,17.68848-8.84473,16.845,33.68927-17.68921,8.84467ZM360,219.05566l-4.42188,2.21143L330.7334,171.57764l17.68848-8.84473L360,185.88867Zm-3.814-76.57208L337.73413,105.5799l68.58423-68.58478,45.583,78.1416ZM453.71,57.06738A15.2777,15.2777,0,0,1,449.0791,77.666l-.36914.246L433.30127,51.497A15.28425,15.28425,0,0,1,453.71,57.06738Z"/></svg>
