<svg id="Capa_1" enable-background="new 0 0 512 512" height="512" viewBox="0 0 512 512" width="512" xmlns="http://www.w3.org/2000/svg"><g><path d="m15 420h166v62h-45c-8.284 0-15 6.716-15 15s6.716 15 15 15h240c8.284 0 15-6.716 15-15s-6.716-15-15-15h-45v-62h166c8.284 0 15-6.716 15-15v-330c0-8.284-6.716-15-15-15h-45v-45c0-8.284-6.716-15-15-15h-362c-8.284 0-15 6.716-15 15v45h-45c-8.284 0-15 6.716-15 15v330c0 8.284 6.716 15 15 15zm286 62h-90v-62h90zm-211-452h332v90h-332zm0 120h332v180h-332zm-60-60h30v255c0 8.284 6.716 15 15 15h362c8.284 0 15-6.716 15-15v-255h30v300h-452z"/><circle cx="136" cy="75" r="15"/><circle cx="196" cy="75" r="15"/><circle cx="256" cy="75" r="15"/><path d="m367.213 255 19.393-19.393c7.869-7.869 4.713-21.312-5.863-24.837l-90-30c-5.389-1.797-11.333-.394-15.35 3.624-4.018 4.018-5.421 9.96-3.624 15.35l30 90c2.049 6.143 7.796 10.256 14.231 10.256 3.932 0 7.761-1.548 10.606-4.394l19.394-19.393 19.394 19.394c2.928 2.928 6.767 4.393 10.606 4.393s7.678-1.465 10.606-4.393c5.858-5.858 5.858-15.355 0-21.213zm-44.657 2.231-12.839-38.514 38.515 12.838z"/><path d="m226 180h-90c-8.284 0-15 6.716-15 15s6.716 15 15 15h90c8.284 0 15-6.716 15-15s-6.716-15-15-15z"/><path d="m226 240h-90c-8.284 0-15 6.716-15 15s6.716 15 15 15h90c8.284 0 15-6.716 15-15s-6.716-15-15-15z"/></g></svg>