<?xml version="1.0" encoding="iso-8859-1"?>
<!-- Generator: Adobe Illustrator 19.0.0, SVG Export Plug-In . SVG Version: 6.00 Build 0)  -->
<svg version="1.1" id="Capa_1" xmlns="http://www.w3.org/2000/svg" xmlns:xlink="http://www.w3.org/1999/xlink" x="0px" y="0px"
	 viewBox="0 0 488.8 488.8" style="enable-background:new 0 0 488.8 488.8;" xml:space="preserve">
<g>
	<path d="M459.466,384.8c-3.3-11.9-12.8-17.1-25-14.6l-63.6,15.6c-11.5,3.1-17.7,13.6-15.6,25c3.1,11.5,13.6,17.7,25,15.6l15.5-3.7
		c-20.6,23.7-55.1,31.3-84.3,16.2c-34.4-17.7-48-59.4-30.2-93.8c17.7-34.3,59.1-47.9,93.5-30.4c3.7,3.3,8.6,5.4,13.9,5.4
		c50,0,91.7-40.7,89.7-88.6c0-36.5-22.9-69.9-56.3-83.4c-4.2-50-46.9-89.7-99-89.7c-13.6,0-26.1,3.1-38.6,8.3
		c-25-41.7-70.9-66.7-120.9-66.7c-79.2,0-142.8,63.6-142.8,140.7c0,13.6,2.1,27.1,6.3,39.6c-11.5,14.6-16.7,32.3-16.7,51.1
		c0,49,41.7,89.7,91.7,89.7h82.9c10.8,0,20.2-8,21.2-18.8c1.2-12.4-8.6-22.9-20.8-22.9h-83.4c-27.1,0-50-21.9-50-49
		c0-12.5,5.2-24,13.6-33.4c5.2-6.3,7.3-14.6,4.2-21.9c-5.2-12.5-7.3-24-7.3-36.5c0-55.3,45.9-100.1,102.2-100.1
		c40.7,0,78.2,24,93.8,61.5c2.1,5.2,16.3,19.8,31.3,8.3c10.4-7.3,22.9-11.5,35.4-11.5c32.3,0,58.4,26.1,58.4,57.3
		c0,2.1-4.2,22,15.6,27.1c22.9,5.2,39.6,25,39.6,48c0,26.1-20.4,47.4-47.1,48.9c-53.8-26.4-119.1-4.4-146.8,49.1
		c-28.1,54.2-6.3,120.9,48,149.1c15.6,8.3,33.4,12.5,50,12.5c33.7,0,66.7-15.9,88-45l2.9,14.2c2.7,11.7,14.8,18.6,26.3,15.1l0,0
		c10.4-3.2,16.5-13.9,14-24.5L459.466,384.8z"/>
</g>
<g>
</g>
<g>
</g>
<g>
</g>
<g>
</g>
<g>
</g>
<g>
</g>
<g>
</g>
<g>
</g>
<g>
</g>
<g>
</g>
<g>
</g>
<g>
</g>
<g>
</g>
<g>
</g>
<g>
</g>
</svg>
