<?xml version="1.0" encoding="iso-8859-1"?>
<!-- Generator: Adobe Illustrator 19.0.0, SVG Export Plug-In . SVG Version: 6.00 Build 0)  -->
<svg version="1.1" id="Layer_1" xmlns="http://www.w3.org/2000/svg" xmlns:xlink="http://www.w3.org/1999/xlink" x="0px" y="0px"
	 viewBox="0 0 512 512" style="enable-background:new 0 0 512 512;" xml:space="preserve">
<g>
	<g>
		<path d="M487.915,3.52C485.888,1.28,483.008,0,480,0H32c-3.029,0-5.888,1.28-7.915,3.52c-2.027,2.219-3.008,5.205-2.709,8.213
			L64.043,438.4c0.405,4.16,3.243,7.723,7.232,9.045l192,64c1.088,0.384,2.24,0.555,3.371,0.555c1.28,0,2.539-0.235,3.776-0.683
			l170.667-64c3.797-1.408,6.464-4.885,6.869-8.917l42.667-426.667C490.923,8.747,489.941,5.739,487.915,3.52z M427.349,429.675
			l-160.917,60.352L84.565,429.397L43.755,21.333h424.427L427.349,429.675z"/>
	</g>
</g>
<g>
	<g>
		<path d="M394.645,106.667h-256c-3.029,0-5.888,1.28-7.915,3.52c-2.027,2.219-3.008,5.205-2.709,8.213l10.667,106.667
			c0.555,5.44,5.141,9.6,10.624,9.6h211.563L342.379,354.88l-75.947,28.48l-86.549-28.864l-9.451-47.253
			c-1.152-5.76-6.741-9.536-12.544-8.363c-5.76,1.152-9.515,6.763-8.363,12.544l10.667,53.333c0.747,3.755,3.456,6.805,7.083,8.021
			l96,32c1.088,0.384,2.24,0.555,3.371,0.555c1.28,0,2.539-0.235,3.755-0.683l85.333-32c3.605-1.344,6.208-4.544,6.784-8.363
			l21.333-138.667c0.469-3.093-0.427-6.208-2.453-8.576c-2.005-2.368-4.971-3.712-8.085-3.712H158.976L150.443,128h244.203
			c5.888,0,10.667-4.779,10.667-10.667S400.533,106.667,394.645,106.667z"/>
	</g>
</g>
<g>
</g>
<g>
</g>
<g>
</g>
<g>
</g>
<g>
</g>
<g>
</g>
<g>
</g>
<g>
</g>
<g>
</g>
<g>
</g>
<g>
</g>
<g>
</g>
<g>
</g>
<g>
</g>
<g>
</g>
</svg>
