<svg id="Capa_1" enable-background="new 0 0 512 512" height="512" viewBox="0 0 512 512" width="512" xmlns="http://www.w3.org/2000/svg"><g><path d="m126 370-15 79v48c0 8.284 6.716 15 15 15h115l15-12 15 12h115c8.284 0 15-6.716 15-15v-48l-15-79z" fill="#fff5f5"/><path d="m401 497v-48l-15-79h-130v130l15 12h115c8.284 0 15-6.716 15-15z" fill="#dfdef5"/><g><path d="m41 455v42c0 8.284 6.716 15 15 15h70v-142c-46.869 0-85 38.131-85 85z" fill="#09607d"/><path d="m386 370v142h70c8.284 0 15-6.716 15-15v-42c0-46.869-38.131-85-85-85z" fill="#07485e"/></g><path d="m45 150c-8.284 0-15-6.716-15-15v-90c0-8.284 6.716-15 15-15s15 6.716 15 15v90c0 8.284-6.716 15-15 15z" fill="#09607d"/><path d="m467 150c-8.284 0-15-6.716-15-15v-100c0-8.284 6.716-15 15-15s15 6.716 15 15v100c0 8.284-6.716 15-15 15z" fill="#09607d"/><path d="m45 60c-16.542 0-30-13.458-30-30s13.458-30 30-30 30 13.458 30 30-13.458 30-30 30z" fill="#fff68e"/><g><path d="m256 400c-8.284 0-15 6.716-15 15v97h30v-97c0-8.284-6.716-15-15-15z" fill="#dfdef5"/></g><path d="m256 400v112h15v-97c0-8.284-6.716-15-15-15z" fill="#d2d0f2"/><path d="m256 430c-47.051 0-94.278-10.898-136.573-31.517-5.156-2.513-8.427-7.747-8.427-13.483v-30c0-24.813 20.187-45 45-45h200c24.813 0 45 20.187 45 45v30c0 5.736-3.271 10.97-8.427 13.483-42.295 20.619-89.522 31.517-136.573 31.517zm130-45h.01z" fill="#dfdef5"/><path d="m356 310h-100v120c47.051 0 94.278-10.898 136.573-31.517 5.156-2.513 8.427-7.747 8.427-13.483v-30c0-24.813-20.187-45-45-45z" fill="#d2d0f2"/><path d="m467 60c-16.542 0-30-13.458-30-30s13.458-30 30-30 30 13.458 30 30-13.458 30-30 30z" fill="#ffde55"/><g><path d="m467 250h-48.5c-8.284 0-15-6.716-15-15v-100c0-8.284 6.716-15 15-15h48.5c19.299 0 35 15.701 35 35v60c0 19.299-15.701 35-35 35z" fill="#d2d0f2"/><path d="m93.5 250h-48.5c-19.299 0-35-15.701-35-35v-60c0-19.299 15.701-35 35-35h48.5c8.284 0 15 6.716 15 15v100c0 8.284-6.715 15-15 15z" fill="#dfdef5"/></g><g><path d="m331 15.901-30-10.355c-9.721-2.438-19.743-4.108-30-4.935h-30c-10.257.827-20.279 2.497-30 4.935l-30 10.356c-64.745 28.828-110 93.773-110 169.098 0 102.01 82.991 185 185 185s185-82.99 185-185c0-75.325-45.255-140.27-110-169.099z" fill="#fff5f5"/><path d="m331 15.901-30-10.355c-9.721-2.438-19.743-4.108-30-4.935h-15v369.389c102.009 0 185-82.99 185-185 0-75.325-45.255-140.27-110-169.099z" fill="#dfdef5"/><path d="m256 80c8.284 0 15-6.716 15-15v-64.389c-4.949-.399-9.95-.611-15-.611s-10.051.212-15 .611v64.389c0 8.284 6.716 15 15 15z" fill="#09607d"/><path d="m316 80c8.284 0 15-6.716 15-15v-49.099c-9.6-4.274-19.627-7.754-30-10.356v59.455c0 8.284 6.716 15 15 15z" fill="#07485e"/><path d="m196 80c8.284 0 15-6.716 15-15v-59.454c-10.373 2.602-20.4 6.081-30 10.356v49.098c0 8.284 6.716 15 15 15z" fill="#09607d"/></g><path d="m256 310c-68.925 0-125-56.075-125-125 0-24.255 7.024-47.838 20.312-68.198 2.77-4.243 7.494-6.802 12.562-6.802h184.253c5.067 0 9.792 2.559 12.562 6.802 13.287 20.36 20.311 43.943 20.311 68.198 0 68.925-56.075 125-125 125z" fill="#9bfbff"/><path d="m348.126 110h-92.126v200c68.925 0 125-56.075 125-125 0-24.255-7.024-47.838-20.312-68.198-2.77-4.243-7.494-6.802-12.562-6.802z" fill="#5ecef4"/><g><g><path d="m271 65v-64.389c-4.949-.399-9.95-.611-15-.611v80c8.284 0 15-6.716 15-15z" fill="#07485e"/></g></g></g></svg>